<svg width="1437" height="240" viewBox="0 0 1437 240" fill="none" xmlns="http://www.w3.org/2000/svg">
<path d="M0.507001 236V3.52998H42.983V105.702L88.903 3.52998H129.37L84.885 107.424L133.962 236H91.773L52.741 130.097L42.983 147.891V236H0.507001ZM215.903 239.157C199.448 239.157 186.342 236.096 176.584 229.973C166.826 223.85 159.842 215.049 155.633 203.569C151.423 192.089 149.319 178.504 149.319 162.815V75.854C149.319 60.1647 151.423 46.7713 155.633 35.674C159.842 24.3853 166.826 15.7753 176.584 9.84399C186.342 3.91265 199.448 0.946981 215.903 0.946981C232.74 0.946981 245.942 3.91265 255.509 9.84399C265.267 15.7753 272.25 24.3853 276.46 35.674C280.86 46.7713 283.061 60.1647 283.061 75.854V163.102C283.061 178.6 280.86 192.089 276.46 203.569C272.25 214.858 265.267 223.659 255.509 229.973C245.942 236.096 232.74 239.157 215.903 239.157ZM215.903 207.874C222.982 207.874 228.148 206.343 231.401 203.282C234.845 200.221 237.141 196.011 238.289 190.654C239.437 185.297 240.011 179.461 240.011 173.147V66.096C240.011 59.5907 239.437 53.755 238.289 48.589C237.141 43.423 234.845 39.405 231.401 36.535C228.148 33.4737 222.982 31.943 215.903 31.943C209.206 31.943 204.136 33.4737 200.692 36.535C197.248 39.405 194.952 43.423 193.804 48.589C192.656 53.755 192.082 59.5907 192.082 66.096V173.147C192.082 179.461 192.56 185.297 193.517 190.654C194.665 196.011 196.961 200.221 200.405 203.282C203.849 206.343 209.015 207.874 215.903 207.874ZM317.351 236V3.52998H385.657C399.624 3.52998 410.913 6.11298 419.523 11.279C428.324 16.445 434.734 24.0027 438.752 33.952C442.961 43.71 445.066 55.5727 445.066 69.54C445.066 84.6553 442.483 96.9007 437.317 106.276C432.151 115.46 424.88 122.157 415.505 126.366C406.321 130.575 395.415 132.68 382.787 132.68H359.827V236H317.351ZM359.827 102.832H375.899C383.552 102.832 389.483 101.78 393.693 99.675C398.093 97.379 401.059 93.8393 402.59 89.056C404.312 84.0813 405.173 77.4803 405.173 69.253C405.173 60.8343 404.503 54.042 403.164 48.876C402.016 43.5187 399.337 39.5963 395.128 37.109C391.11 34.6217 384.7 33.378 375.899 33.378H359.827V102.832ZM503.999 236V147.317L456.931 3.52998H496.537L525.237 95.657L552.215 3.52998H590.96L544.466 147.317V236H503.999ZM637.542 236V34.813H600.519V3.52998H716.467V34.813H680.018V236H637.542ZM802.504 239.157C786.049 239.157 772.943 236.096 763.185 229.973C753.427 223.85 746.443 215.049 742.234 203.569C738.024 192.089 735.92 178.504 735.92 162.815V75.854C735.92 60.1647 738.024 46.7713 742.234 35.674C746.443 24.3853 753.427 15.7753 763.185 9.84399C772.943 3.91265 786.049 0.946981 802.504 0.946981C819.341 0.946981 832.543 3.91265 842.11 9.84399C851.868 15.7753 858.851 24.3853 863.061 35.674C867.461 46.7713 869.662 60.1647 869.662 75.854V163.102C869.662 178.6 867.461 192.089 863.061 203.569C858.851 214.858 851.868 223.659 842.11 229.973C832.543 236.096 819.341 239.157 802.504 239.157ZM802.504 207.874C809.583 207.874 814.749 206.343 818.002 203.282C821.446 200.221 823.742 196.011 824.89 190.654C826.038 185.297 826.612 179.461 826.612 173.147V66.096C826.612 59.5907 826.038 53.755 824.89 48.589C823.742 43.423 821.446 39.405 818.002 36.535C814.749 33.4737 809.583 31.943 802.504 31.943C795.807 31.943 790.737 33.4737 787.293 36.535C783.849 39.405 781.553 43.423 780.405 48.589C779.257 53.755 778.683 59.5907 778.683 66.096V173.147C778.683 179.461 779.161 185.297 780.118 190.654C781.266 196.011 783.562 200.221 787.006 203.282C790.45 206.343 795.616 207.874 802.504 207.874ZM938.418 236L891.637 3.52998H929.234L959.943 167.981L988.643 3.52998H1027.1L980.32 236H938.418ZM1112.81 239.157C1098.46 239.157 1086.79 235.809 1077.79 229.112C1068.8 222.415 1062.2 213.327 1057.99 201.847C1053.97 190.176 1051.96 177.165 1051.96 162.815V81.307C1051.96 66.1917 1053.68 52.607 1057.13 40.553C1060.57 28.3076 1066.7 18.6453 1075.5 11.566C1084.3 4.48665 1096.64 0.946981 1112.52 0.946981C1126.1 0.946981 1137.11 3.24299 1145.52 7.835C1154.13 12.2357 1160.45 18.741 1164.47 27.351C1168.48 35.961 1170.49 46.58 1170.49 59.208C1170.49 59.782 1170.49 60.4517 1170.49 61.217C1170.69 61.791 1170.78 62.365 1170.78 62.939H1132.61C1132.61 52.607 1131.37 44.858 1128.88 39.692C1126.39 34.526 1121.03 31.943 1112.81 31.943C1107.83 31.943 1103.81 33.4737 1100.75 36.535C1097.69 39.5963 1095.4 44.6667 1093.86 51.746C1092.53 58.634 1091.86 67.9137 1091.86 79.585V107.424C1094.53 103.023 1098.55 99.5793 1103.91 97.092C1109.46 94.4133 1115.87 93.074 1123.14 93.074C1135.77 92.8827 1145.72 95.657 1152.99 101.397C1160.26 107.137 1165.42 115.077 1168.48 125.218C1171.74 135.359 1173.36 146.934 1173.36 159.945C1173.36 175.06 1171.45 188.645 1167.62 200.699C1163.8 212.562 1157.48 221.937 1148.68 228.825C1139.88 235.713 1127.92 239.157 1112.81 239.157ZM1113.09 208.448C1118.64 208.448 1122.85 206.726 1125.72 203.282C1128.59 199.838 1130.6 195.055 1131.75 188.932C1132.9 182.809 1133.47 175.634 1133.47 167.407C1133.47 158.988 1133.09 151.526 1132.32 145.021C1131.75 138.324 1130.03 133.063 1127.16 129.236C1124.29 125.218 1119.5 123.209 1112.81 123.209C1109.55 123.209 1106.49 123.879 1103.62 125.218C1100.94 126.366 1098.55 127.897 1096.45 129.81C1094.53 131.723 1093 133.637 1091.86 135.55V171.999C1091.86 178.504 1092.43 184.531 1093.58 190.08C1094.92 195.629 1097.12 200.125 1100.18 203.569C1103.43 206.822 1107.74 208.448 1113.09 208.448ZM1230.93 236V47.441C1229.78 48.015 1227.49 48.876 1224.04 50.024C1220.79 51.172 1217.15 52.32 1213.14 53.468C1209.12 54.4247 1205.39 55.3813 1201.94 56.338C1198.69 57.2947 1196.39 58.06 1195.05 58.634V29.073C1197.73 28.1163 1201.08 26.777 1205.1 25.055C1209.12 23.333 1213.33 21.4197 1217.73 19.315C1222.32 17.019 1226.53 14.5317 1230.36 11.853C1234.37 9.17433 1237.63 6.39999 1240.11 3.52998H1270.54V236H1230.93ZM1375.46 239.157C1362.07 239.157 1351.07 236.861 1342.46 232.269C1333.85 227.677 1327.53 220.98 1323.52 212.179C1319.5 203.378 1317.49 192.663 1317.49 180.035C1317.49 179.652 1317.49 179.174 1317.49 178.6C1317.49 178.026 1317.49 177.452 1317.49 176.878H1355.37C1355.37 187.21 1356.62 194.959 1359.1 200.125C1361.78 205.291 1367.33 207.874 1375.75 207.874C1380.92 207.874 1384.93 206.343 1387.8 203.282C1390.67 200.221 1392.78 195.15 1394.12 188.071C1395.46 180.992 1396.13 171.712 1396.13 160.232V132.393C1393.45 136.794 1389.43 140.238 1384.07 142.725C1378.72 145.212 1372.31 146.552 1364.84 146.743C1352.41 146.934 1342.46 144.064 1335 138.133C1327.73 132.01 1322.46 123.783 1319.21 113.451C1316.15 103.119 1314.62 91.4477 1314.62 78.437C1314.62 63.1303 1316.63 49.737 1320.65 38.257C1324.66 26.5857 1331.17 17.4973 1340.16 10.992C1349.16 4.29532 1360.92 0.946981 1375.46 0.946981C1389.81 0.946981 1401.48 4.19965 1410.48 10.705C1419.47 17.019 1425.98 25.8203 1429.99 37.109C1434.2 48.3977 1436.31 61.3127 1436.31 75.854V158.223C1436.31 173.338 1434.49 187.019 1430.85 199.264C1427.41 211.509 1421.29 221.267 1412.49 228.538C1403.88 235.617 1391.54 239.157 1375.46 239.157ZM1375.75 116.608C1381.11 116.608 1385.32 115.269 1388.38 112.59C1391.63 109.911 1394.21 107.041 1396.13 103.98V67.818C1396.13 61.1213 1395.55 55.0943 1394.41 49.737C1393.26 44.1883 1391.15 39.7877 1388.09 36.535C1385.22 33.091 1381.01 31.369 1375.46 31.369C1370.11 31.369 1365.9 33.091 1362.84 36.535C1359.97 39.979 1357.96 44.7623 1356.81 50.885C1355.66 57.0077 1355.09 64.1827 1355.09 72.41C1355.09 80.6373 1355.37 88.0993 1355.95 94.796C1356.71 101.493 1358.53 106.85 1361.4 110.868C1364.27 114.695 1369.05 116.608 1375.75 116.608Z" fill="white"/>
</svg>
